<svg xmlns="http://www.w3.org/2000/svg" xmlns:xlink="http://www.w3.org/1999/xlink" zoomAndPan="magnify" preserveAspectRatio="xMidYMid meet" version="1.0" viewBox="60.6 149.77 255.4 86.23"><defs><g/></defs><g fill="#ffffff" fill-opacity="1"><g transform="translate(61.162642, 192.212155)"><g><path d="M -0.539062 3.511719 C -0.539062 10.324219 1.242188 22.757812 10.324219 22.757812 C 17.027344 22.757812 24.808594 14.433594 27.890625 10.324219 C 28.972656 8.863281 29.890625 7.460938 30.917969 5.945312 L 38.972656 -8.757812 C 38.972656 -9.136719 38.648438 -9.566406 38.160156 -9.566406 C 37.675781 -9.566406 37.027344 -9.1875 36.378906 -7.945312 C 32.429688 -0.433594 28.429688 7.566406 22.539062 13.566406 C 21.835938 14.269531 21.296875 14.59375 20.59375 15.242188 L 18.757812 16.863281 C 16.59375 18.539062 13.460938 20.539062 10.378906 20.539062 C 6.917969 20.539062 4.8125 17.890625 3.890625 14.863281 C 1.136719 7.621094 2.539062 -2.109375 4.054688 -9.296875 C 5.835938 -18 10.160156 -30.808594 16.378906 -37.027344 C 18.214844 -38.863281 20.269531 -39.835938 22.054688 -39.835938 C 24.269531 -39.835938 26 -38.214844 26 -34.539062 C 26 -28.703125 23.78125 -23.566406 21.621094 -18.59375 C 21.351562 -17.890625 21.027344 -17.242188 20.757812 -16.484375 C 20.214844 -15.460938 20.109375 -15.132812 21.027344 -14.484375 C 22.109375 -14.703125 22.160156 -15.132812 22.539062 -16 C 24.703125 -20.378906 28.105469 -28.269531 28.105469 -33.027344 C 28.105469 -35.78125 28.269531 -37.675781 26.59375 -40.054688 C 25.351562 -41.730469 23.730469 -42.429688 22 -42.429688 C 19.675781 -42.429688 17.132812 -41.1875 15.132812 -39.621094 C 10.757812 -36.160156 7.351562 -29.457031 5.296875 -24.269531 C 2.378906 -16.863281 -0.539062 -6.703125 -0.539062 3.511719 Z M -0.539062 3.511719 "/></g></g></g><g fill="#ffffff" fill-opacity="1"><g transform="translate(97.968555, 192.212155)"><g><path d="M 2.703125 -1.242188 C 1.511719 -3.730469 4 -8.59375 4.378906 -10.160156 C 6.269531 -8.917969 4.917969 -1.835938 2.703125 -1.242188 Z M 0 -3.082031 C 0 -0.269531 1.1875 1.136719 2.59375 1.136719 C 4.214844 1.136719 6.214844 -0.757812 7.027344 -4.488281 C 8.214844 -10.054688 5.621094 -10.972656 5.351562 -12 C 5.621094 -12.433594 6.109375 -12.757812 6.269531 -13.132812 C 6.433594 -13.566406 6.109375 -14.433594 5.40625 -14.433594 C 2.757812 -14.433594 0 -5.511719 0 -3.082031 Z M 0 -3.082031 "/></g></g></g><g fill="#ffffff" fill-opacity="1"><g transform="translate(107.480804, 192.212155)"><g><path d="M 0.0546875 -6.59375 C 0.0546875 -4.757812 -0.214844 -2.109375 2.269531 -2.109375 C 3.945312 -2.109375 6.484375 -6.214844 7.351562 -7.730469 C 7.675781 -8.324219 8.433594 -9.566406 8.863281 -9.835938 C 8.863281 -7.242188 9.082031 -2.757812 12.648438 -2.757812 C 14.269531 -2.757812 16.054688 -3.890625 17.511719 -5.242188 C 18.160156 -5.835938 20.648438 -7.890625 20.648438 -8.8125 C 20.648438 -9.40625 20.214844 -9.511719 19.785156 -9.511719 C 18.757812 -9.511719 15.1875 -4.488281 12.808594 -4.488281 C 11.785156 -4.488281 10.972656 -5.40625 10.648438 -8 C 10.484375 -9.40625 11.1875 -12.972656 9.730469 -12.972656 C 8.703125 -12.972656 8.378906 -12.109375 7.675781 -11.082031 L 4.433594 -6.324219 C 3.890625 -5.621094 3.296875 -4.59375 2.433594 -4.324219 C 1.621094 -7.945312 4.917969 -13.621094 4.917969 -13.835938 C 4.917969 -14.324219 4.757812 -14.324219 4.703125 -14.703125 C 4.324219 -14.917969 4 -14.972656 3.730469 -14.972656 C 3.296875 -14.972656 2.917969 -14.757812 2.539062 -14.324219 C 1.1875 -12.59375 0.0546875 -8.917969 0.0546875 -6.59375 Z M 0.0546875 -6.59375 "/></g></g></g><g fill="#ffffff" fill-opacity="1"><g transform="translate(125.74864, 192.212155)"><g><path d="M 0.757812 -0.214844 C 2.433594 -0.214844 1.785156 -2.054688 2.109375 -3.460938 C 2.324219 -4.757812 2.8125 -5.835938 3.351562 -6.757812 C 4.214844 -8.160156 4.488281 -8.160156 6.539062 -8.160156 C 7.136719 -8.160156 7.945312 -8.109375 8.648438 -8.109375 C 9.730469 -8.109375 10.59375 -8.214844 10.59375 -8.972656 C 10.59375 -9.675781 8.917969 -9.785156 7.351562 -9.785156 C 6.433594 -9.785156 5.511719 -9.730469 5.027344 -9.730469 C 3.351562 -9.730469 3.027344 -8.703125 2.214844 -8.160156 C 2.214844 -8.863281 2.324219 -8.8125 2.324219 -9.566406 C 2.324219 -10.109375 2.324219 -10.757812 2.378906 -11.296875 C 2.539062 -12.808594 2.8125 -13.835938 1.351562 -13.835938 C 0.164062 -13.835938 0.0546875 -8.214844 0.0546875 -7.242188 C 0.109375 -5.890625 0.0546875 -4.539062 0.109375 -3.242188 C 0.109375 -2.863281 -0.324219 -0.214844 0.757812 -0.214844 Z M 0.757812 -0.214844 "/></g></g></g><g fill="#ffffff" fill-opacity="1"><g transform="translate(134.558279, 192.212155)"><g><path d="M 0 -5.460938 C 0 -3.511719 0.164062 -2.59375 2.160156 -2.59375 C 3.730469 -2.59375 5.40625 -7.675781 6.433594 -8.378906 C 6.433594 -6.054688 8.160156 -3.242188 10.863281 -3.242188 C 11.785156 -3.242188 12.808594 -3.566406 13.890625 -4.324219 L 15.511719 -5.621094 C 18.269531 -8.269531 17.945312 -9.621094 17.132812 -9.621094 C 16.808594 -9.621094 16.433594 -9.460938 16.160156 -9.082031 C 15.40625 -8.269531 15.242188 -7.785156 14.214844 -6.863281 C 13.027344 -5.675781 11.890625 -5.027344 10.863281 -5.027344 C 9.730469 -5.027344 8.757812 -5.890625 8.324219 -7.835938 C 7.835938 -9.890625 8.757812 -12.324219 6.863281 -12.324219 C 6.160156 -12.324219 3.945312 -7.730469 2.863281 -6.054688 L 2.433594 -5.40625 C 2.160156 -5.082031 2.324219 -5.296875 2.160156 -5.136719 C 2.160156 -6.917969 2.917969 -8.972656 3.621094 -10.109375 C 5.1875 -12.808594 6.269531 -13.566406 7.082031 -13.566406 C 8.109375 -13.566406 8.757812 -12.324219 9.511719 -12.324219 C 10.917969 -12.324219 9.511719 -15.40625 6.972656 -15.40625 C 3.1875 -15.40625 0 -8.539062 0 -5.460938 Z M 0 -5.460938 "/></g></g></g><g fill="#ffffff" fill-opacity="1"><g transform="translate(150.231865, 192.212155)"><g><path d="M 0 19.945312 C -4.324219 19.945312 -0.917969 12.109375 -0.324219 10.648438 C 0.539062 8.648438 3.027344 5.136719 4.214844 3.621094 C 4.59375 2.972656 6.648438 0.324219 7.351562 0.109375 L 7.136719 3.242188 C 6.59375 7.675781 6.324219 12.648438 3.835938 16.863281 C 3.082031 18.109375 1.40625 19.945312 0 19.945312 Z M -0.59375 -4.59375 C -0.59375 -3.730469 -0.757812 -2.109375 0.863281 -2.109375 C 2.214844 -2.109375 3.675781 -3.675781 4.433594 -4.433594 C 5.621094 -5.511719 6.757812 -7.511719 7.351562 -7.730469 C 7.351562 -5.511719 7.730469 -2.757812 6.8125 -1.785156 C 3.511719 1.730469 0.8125 5.1875 -1.351562 9.566406 C -2.863281 12.59375 -3.460938 14.160156 -3.460938 17.621094 C -3.460938 19.785156 -2 21.457031 0 21.457031 C 1.890625 21.457031 4.269531 19.945312 6.378906 15.835938 C 8.054688 12.433594 9.566406 5.082031 9.511719 0.757812 C 9.511719 -0.214844 9.566406 -1.082031 9.675781 -2.109375 C 9.785156 -3.027344 10.59375 -3.242188 11.1875 -3.730469 C 12.484375 -5.027344 16.972656 -8.160156 17.082031 -8.378906 C 17.296875 -8.8125 17.132812 -9.40625 16.703125 -9.40625 C 14.808594 -9.40625 10.648438 -5.027344 9.511719 -4.757812 C 9.511719 -6.648438 9.675781 -11.082031 8.054688 -11.082031 C 7.1875 -11.082031 6.648438 -9.890625 6.269531 -9.351562 C 5.621094 -8.433594 4.59375 -6.972656 3.890625 -6.214844 C 3.1875 -5.511719 2.160156 -4.054688 0.863281 -3.730469 C 0.863281 -6.433594 4.8125 -13.566406 7.945312 -13.566406 C 9.136719 -13.566406 8.757812 -11.890625 10.054688 -11.785156 C 10.972656 -13.1875 10 -15.027344 8 -15.027344 C 4.160156 -15.027344 -0.59375 -8.109375 -0.59375 -4.59375 Z M -0.59375 -4.59375 "/></g></g></g><g fill="#ffffff" fill-opacity="1"><g transform="translate(165.310943, 192.212155)"><g><path d="M 2.488281 -9.785156 C 2.863281 -11.136719 4.648438 -13.242188 6.109375 -13.511719 C 5.945312 -11.785156 3.835938 -10.484375 2.488281 -9.785156 Z M 0.0546875 -8.484375 C 0.0546875 -6.972656 0 -5.621094 1.296875 -4.324219 C 2.214844 -3.40625 3.296875 -3.027344 4.433594 -3.027344 C 7.730469 -3.027344 11.460938 -6.324219 13.460938 -8.324219 C 13.945312 -8.917969 13.945312 -8.972656 13.785156 -9.785156 C 12.160156 -9.785156 13.027344 -9.566406 10.808594 -7.835938 C 10.433594 -7.566406 10.269531 -7.351562 9.835938 -7.027344 C 8.757812 -6.214844 6.484375 -4.648438 4.59375 -4.648438 C 3.945312 -4.648438 3.296875 -4.863281 2.8125 -5.351562 C 1.890625 -6.269531 2 -7.136719 2 -8.269531 C 3.675781 -8.378906 5.621094 -9.945312 6.484375 -10.917969 C 8.160156 -13.027344 8.160156 -15.1875 5.785156 -15.1875 C 3.1875 -15.1875 0.0546875 -11.1875 0.0546875 -8.484375 Z M 0.0546875 -8.484375 "/></g></g></g><g fill="#ffffff" fill-opacity="1"><g transform="translate(177.039111, 192.212155)"><g><path d="M 2.703125 -1.242188 C 1.511719 -3.730469 4 -8.59375 4.378906 -10.160156 C 6.269531 -8.917969 4.917969 -1.835938 2.703125 -1.242188 Z M 0 -3.082031 C 0 -0.269531 1.1875 1.136719 2.59375 1.136719 C 4.214844 1.136719 6.214844 -0.757812 7.027344 -4.488281 C 8.214844 -10.054688 5.621094 -10.972656 5.351562 -12 C 5.621094 -12.433594 6.109375 -12.757812 6.269531 -13.132812 C 6.433594 -13.566406 6.109375 -14.433594 5.40625 -14.433594 C 2.757812 -14.433594 0 -5.511719 0 -3.082031 Z M 0 -3.082031 "/></g></g></g><g fill="#ffffff" fill-opacity="1"><g transform="translate(186.551359, 192.212155)"><g><path d="M 0.0546875 -6.59375 C 0.0546875 -4.757812 -0.214844 -2.109375 2.269531 -2.109375 C 3.945312 -2.109375 6.484375 -6.214844 7.351562 -7.730469 C 7.675781 -8.324219 8.433594 -9.566406 8.863281 -9.835938 C 8.863281 -7.242188 9.082031 -2.757812 12.648438 -2.757812 C 14.269531 -2.757812 16.054688 -3.890625 17.511719 -5.242188 C 18.160156 -5.835938 20.648438 -7.890625 20.648438 -8.8125 C 20.648438 -9.40625 20.214844 -9.511719 19.785156 -9.511719 C 18.757812 -9.511719 15.1875 -4.488281 12.808594 -4.488281 C 11.785156 -4.488281 10.972656 -5.40625 10.648438 -8 C 10.484375 -9.40625 11.1875 -12.972656 9.730469 -12.972656 C 8.703125 -12.972656 8.378906 -12.109375 7.675781 -11.082031 L 4.433594 -6.324219 C 3.890625 -5.621094 3.296875 -4.59375 2.433594 -4.324219 C 1.621094 -7.945312 4.917969 -13.621094 4.917969 -13.835938 C 4.917969 -14.324219 4.757812 -14.324219 4.703125 -14.703125 C 4.324219 -14.917969 4 -14.972656 3.730469 -14.972656 C 3.296875 -14.972656 2.917969 -14.757812 2.539062 -14.324219 C 1.1875 -12.59375 0.0546875 -8.917969 0.0546875 -6.59375 Z M 0.0546875 -6.59375 "/></g></g></g><g fill="#ffffff" fill-opacity="1"><g transform="translate(204.819195, 192.212155)"><g><path d="M 0.648438 8.917969 C 0.648438 6.757812 2.214844 4.324219 3.511719 2.757812 C 4.160156 2 5.460938 0.378906 6.324219 -0.109375 C 6.324219 1.40625 6.378906 2.59375 6 3.835938 C 5.511719 5.621094 4.324219 8.214844 2.863281 9.296875 C 2.488281 9.621094 1.835938 10.054688 1.351562 10.054688 C 0.972656 10.054688 0.648438 9.730469 0.648438 8.917969 Z M 0.164062 -8.757812 C 0.164062 -5.890625 3.945312 -4.972656 5.621094 -1.890625 C 4.8125 -0.59375 -1.082031 4.054688 -1.082031 8.917969 C -1.082031 10.863281 0 11.890625 1.511719 11.890625 C 3.136719 11.890625 5.1875 10.648438 6.757812 8 C 10.378906 1.835938 8.160156 -1.296875 8.378906 -2.054688 C 8.484375 -2.488281 12.324219 -5.351562 12.917969 -5.675781 L 16.59375 -8.214844 C 17.835938 -8.917969 17.945312 -9.835938 17.082031 -9.835938 C 16.59375 -9.835938 15.890625 -9.621094 14.972656 -8.972656 L 9.945312 -5.460938 C 9.136719 -4.757812 8.378906 -4.160156 7.511719 -3.566406 C 4.703125 -7.785156 0.648438 -7.621094 3.511719 -10.863281 C 4.324219 -11.785156 4.160156 -11.511719 5.460938 -11.835938 C 5.785156 -13.1875 5.296875 -13.730469 4.539062 -13.730469 C 2.972656 -13.730469 0.164062 -11.511719 0.164062 -8.757812 Z M 0.164062 -8.757812 "/></g></g></g><g fill="#ffffff" fill-opacity="1"><g transform="translate(220.438743, 192.212155)"><g/></g></g><g fill="#ffffff" fill-opacity="1"><g transform="translate(234.436881, 192.212155)"><g><path d="M 24.863281 8.054688 C 24.269531 7.945312 24.160156 7.675781 23.730469 7.296875 C 20.324219 4.703125 16.214844 4.214844 12.214844 4.214844 C 10.808594 4.214844 9.460938 4.269531 8.109375 4.324219 C 6.757812 4.324219 5.136719 4.648438 3.835938 4.648438 C 3.835938 3.835938 3.945312 3.621094 3.945312 2.648438 C 4 1.675781 4.109375 1.621094 4.757812 1.136719 C 9.511719 -2.269531 17.566406 -6 23.242188 -7.621094 C 24.214844 -7.835938 26 -8.484375 26.972656 -8.484375 L 25.296875 3.730469 C 25.082031 5.136719 24.863281 6.59375 24.863281 8.054688 Z M 27.351562 -10.433594 C 13.460938 -7.242188 4.972656 -0.863281 4.324219 -0.703125 C 4.324219 -3.945312 4.972656 -7.1875 5.242188 -10.269531 C 5.675781 -15.835938 7.460938 -28.378906 8.433594 -33.835938 C 8.59375 -34.703125 9.675781 -39.730469 8.59375 -40.59375 C 8.378906 -40.753906 8.160156 -40.808594 8.054688 -40.808594 C 7.785156 -40.808594 7.675781 -40.59375 7.675781 -40.59375 C 6.917969 -40.214844 7.242188 -40.429688 6.757812 -38.269531 C 5.027344 -29.675781 3.730469 -21.027344 2.59375 -12.378906 L 2 -6.214844 C 2 -4.160156 1.621094 -2.109375 1.511719 -0.109375 C 1.460938 1.351562 1.621094 1.621094 0.757812 2.488281 C -0.757812 4 -1.136719 6.109375 0.972656 6.269531 C 0.972656 9.1875 0.378906 12.539062 0.378906 14.484375 C 0.378906 17.785156 0.109375 21.457031 0.109375 25.511719 C 0.109375 26.160156 0.539062 26.972656 1.136719 26.972656 C 2.648438 26.972656 2.324219 25.835938 2.378906 24.433594 L 2.917969 17.082031 C 2.917969 15.945312 2.972656 14.648438 3.136719 13.40625 L 3.835938 6.378906 C 4.214844 6 12.054688 5.945312 13.785156 5.945312 C 17.351562 5.945312 20.863281 7.136719 22.808594 8.8125 C 24.648438 10.324219 24.378906 10.214844 24.269531 12.863281 C 24.160156 15.40625 23.890625 16.972656 23.890625 20 C 23.890625 20.648438 24.378906 21.296875 25.027344 21.296875 C 25.566406 21.296875 26.214844 20.757812 26.648438 19.082031 C 27.242188 16.757812 27.1875 16.433594 27.1875 14.109375 C 27.1875 11.242188 26.214844 13.566406 27.027344 8.433594 L 29.621094 -9.1875 L 34.269531 -10.160156 C 37.132812 -10.59375 40.808594 -11.351562 43.78125 -11.351562 C 43.835938 -11.351562 43.945312 -11.351562 44.054688 -11.351562 C 44.429688 -11.351562 44.808594 -11.296875 45.132812 -11.296875 C 45.621094 -11.296875 46.050781 -11.40625 46.105469 -11.945312 C 46.269531 -12.863281 45.027344 -13.1875 43.351562 -13.1875 C 39.945312 -13.1875 34.484375 -11.945312 33.351562 -11.730469 C 32.648438 -11.621094 30.539062 -11.242188 30 -11.027344 C 30.378906 -15.675781 34.269531 -32.324219 35.511719 -37.1875 C 36.105469 -39.402344 36.59375 -39.945312 36.269531 -41.675781 C 35.945312 -41.730469 35.675781 -41.78125 35.40625 -41.78125 C 34.539062 -41.78125 34.539062 -41.078125 33.78125 -38.753906 C 31.890625 -33.1875 29.1875 -20.808594 28.054688 -14.703125 C 27.835938 -13.296875 27.621094 -11.785156 27.351562 -10.433594 Z M 27.351562 -10.433594 "/></g></g></g><g fill="#ffffff" fill-opacity="1"><g transform="translate(277.458183, 192.212155)"><g><path d="M 2.703125 -1.242188 C 1.511719 -3.730469 4 -8.59375 4.378906 -10.160156 C 6.269531 -8.917969 4.917969 -1.835938 2.703125 -1.242188 Z M 0 -3.082031 C 0 -0.269531 1.1875 1.136719 2.59375 1.136719 C 4.214844 1.136719 6.214844 -0.757812 7.027344 -4.488281 C 8.214844 -10.054688 5.621094 -10.972656 5.351562 -12 C 5.621094 -12.433594 6.109375 -12.757812 6.269531 -13.132812 C 6.433594 -13.566406 6.109375 -14.433594 5.40625 -14.433594 C 2.757812 -14.433594 0 -5.511719 0 -3.082031 Z M 0 -3.082031 "/></g></g></g><g fill="#ffffff" fill-opacity="1"><g transform="translate(286.970443, 192.212155)"><g><path d="M 3.730469 3.351562 C 4.214844 1.296875 4.160156 1.511719 5.511719 0.269531 L 8.214844 -2.054688 C 7.785156 -0.433594 5.511719 2.378906 3.730469 3.351562 Z M 5.082031 -1.40625 C 5.242188 -3.40625 7.675781 -8.054688 8.757812 -8.054688 C 9.082031 -8.054688 9.242188 -7.675781 9.242188 -6.8125 C 9.242188 -4.378906 9.460938 -5.082031 6.269531 -2.378906 C 6 -2.160156 6 -2.160156 5.675781 -1.945312 C 5.40625 -1.675781 5.40625 -1.621094 5.082031 -1.40625 Z M 0 -0.214844 C 0 4.378906 0.59375 9.1875 1.242188 13.730469 C 1.351562 14.703125 1.351562 15.1875 2.160156 15.1875 C 3.351562 15.1875 2.59375 12.269531 2.59375 10.269531 C 2.59375 9.296875 2.863281 5.621094 3.675781 5.136719 C 4.054688 4.863281 4.648438 4.648438 5.082031 4.433594 C 9.511719 1.890625 10.484375 -3.730469 10.972656 -4.269531 C 11.675781 -5.136719 16.917969 -8.214844 16.917969 -8.972656 C 16.917969 -9.460938 16.757812 -9.621094 16.433594 -9.621094 C 15.566406 -9.621094 13.621094 -8 12.59375 -7.296875 C 12.160156 -7.027344 11.511719 -6.484375 11.082031 -6.378906 C 11.082031 -7.890625 10.324219 -9.730469 8.757812 -9.730469 C 5.027344 -9.730469 3.566406 0.433594 2.324219 1.351562 C 2.324219 -4.054688 2.757812 -8.8125 3.785156 -13.945312 C 4.160156 -15.730469 4.324219 -15.40625 4 -16.648438 C 3.730469 -16.808594 3.460938 -16.863281 3.242188 -16.863281 C 0.917969 -16.863281 0 -2.378906 0 -0.214844 Z M 0 -0.214844 "/></g></g></g><g fill="#ffffff" fill-opacity="1"><g transform="translate(302.10356, 192.212155)"><g><path d="M 2.488281 -9.785156 C 2.863281 -11.136719 4.648438 -13.242188 6.109375 -13.511719 C 5.945312 -11.785156 3.835938 -10.484375 2.488281 -9.785156 Z M 0.0546875 -8.484375 C 0.0546875 -6.972656 0 -5.621094 1.296875 -4.324219 C 2.214844 -3.40625 3.296875 -3.027344 4.433594 -3.027344 C 7.730469 -3.027344 11.460938 -6.324219 13.460938 -8.324219 C 13.945312 -8.917969 13.945312 -8.972656 13.785156 -9.785156 C 12.160156 -9.785156 13.027344 -9.566406 10.808594 -7.835938 C 10.433594 -7.566406 10.269531 -7.351562 9.835938 -7.027344 C 8.757812 -6.214844 6.484375 -4.648438 4.59375 -4.648438 C 3.945312 -4.648438 3.296875 -4.863281 2.8125 -5.351562 C 1.890625 -6.269531 2 -7.136719 2 -8.269531 C 3.675781 -8.378906 5.621094 -9.945312 6.484375 -10.917969 C 8.160156 -13.027344 8.160156 -15.1875 5.785156 -15.1875 C 3.1875 -15.1875 0.0546875 -11.1875 0.0546875 -8.484375 Z M 0.0546875 -8.484375 "/></g></g></g><g fill="#ffffff" fill-opacity="1"><g transform="translate(97.430085, 235.976133)"><g><path d="M 7.390625 0 L 6.578125 -1.8125 L 2.703125 -1.8125 L 1.890625 0 L 0.6875 0 L 4.03125 -7.5625 L 5.3125 -7.5625 L 8.640625 0 Z M 4.046875 -4.875 L 3.203125 -2.9375 L 6.078125 -2.9375 L 5.203125 -4.921875 C 5.003906 -5.367188 4.8125 -5.84375 4.625 -6.34375 C 4.53125 -6.082031 4.4375 -5.828125 4.34375 -5.578125 C 4.25 -5.335938 4.148438 -5.101562 4.046875 -4.875 Z M 4.046875 -4.875 "/></g></g></g><g fill="#ffffff" fill-opacity="1"><g transform="translate(115.398027, 235.976133)"><g><path d="M 7.875 -5.1875 C 7.875 -4.695312 7.71875 -4.25 7.40625 -3.84375 C 7.101562 -3.4375 6.710938 -3.144531 6.234375 -2.96875 L 8.265625 0.015625 L 6.828125 0 L 4.9375 -2.8125 L 2.734375 -2.8125 L 2.734375 0 L 1.5625 0 L 1.5625 -7.5625 L 5.453125 -7.5625 C 5.878906 -7.5625 6.273438 -7.457031 6.640625 -7.25 C 7.003906 -7.050781 7.300781 -6.773438 7.53125 -6.421875 C 7.757812 -6.066406 7.875 -5.65625 7.875 -5.1875 Z M 5.1875 -6.4375 L 2.734375 -6.4375 L 2.734375 -3.9375 L 5.328125 -3.9375 C 5.578125 -3.9375 5.800781 -3.992188 6 -4.109375 C 6.207031 -4.222656 6.367188 -4.378906 6.484375 -4.578125 C 6.597656 -4.773438 6.65625 -4.984375 6.65625 -5.203125 C 6.65625 -5.441406 6.585938 -5.65625 6.453125 -5.84375 C 6.316406 -6.03125 6.132812 -6.175781 5.90625 -6.28125 C 5.6875 -6.382812 5.445312 -6.4375 5.1875 -6.4375 Z M 5.1875 -6.4375 "/></g></g></g><g fill="#ffffff" fill-opacity="1"><g transform="translate(133.452304, 235.976133)"><g><path d="M 3.3125 0 L 3.3125 -6.4375 L 0.765625 -6.4375 L 0.765625 -7.5625 L 7.078125 -7.5625 L 7.078125 -6.4375 L 4.484375 -6.4375 L 4.484375 0 Z M 3.3125 0 "/></g></g></g><g fill="#ffffff" fill-opacity="1"><g transform="translate(149.9416, 235.976133)"><g/></g></g><g fill="#ffffff" fill-opacity="1"><g transform="translate(162.847605, 235.976133)"><g><path d="M 3.3125 0 L 3.3125 -6.4375 L 0.765625 -6.4375 L 0.765625 -7.5625 L 7.078125 -7.5625 L 7.078125 -6.4375 L 4.484375 -6.4375 L 4.484375 0 Z M 3.3125 0 "/></g></g></g><g fill="#ffffff" fill-opacity="1"><g transform="translate(179.336904, 235.976133)"><g><path d="M 2.734375 -7.5625 L 2.734375 -4.3125 L 7.34375 -4.3125 L 7.34375 -7.5625 L 8.515625 -7.5625 L 8.515625 0 L 7.34375 0 L 7.34375 -3.1875 L 2.734375 -3.1875 L 2.734375 0 L 1.5625 0 L 1.5625 -7.5625 Z M 2.734375 -7.5625 "/></g></g></g><g fill="#ffffff" fill-opacity="1"><g transform="translate(198.049555, 235.976133)"><g><path d="M 1.5625 -7.5625 L 7.171875 -7.5625 L 7.171875 -6.4375 L 2.734375 -6.4375 L 2.734375 -4.4375 L 6.578125 -4.4375 L 6.578125 -3.3125 L 2.734375 -3.3125 L 2.734375 -1.125 L 7.171875 -1.125 L 7.171875 0 L 1.5625 0 Z M 1.5625 -7.5625 "/></g></g></g><g fill="#ffffff" fill-opacity="1"><g transform="translate(215.186429, 235.976133)"><g><path d="M 7.875 -5.1875 C 7.875 -4.695312 7.71875 -4.25 7.40625 -3.84375 C 7.101562 -3.4375 6.710938 -3.144531 6.234375 -2.96875 L 8.265625 0.015625 L 6.828125 0 L 4.9375 -2.8125 L 2.734375 -2.8125 L 2.734375 0 L 1.5625 0 L 1.5625 -7.5625 L 5.453125 -7.5625 C 5.878906 -7.5625 6.273438 -7.457031 6.640625 -7.25 C 7.003906 -7.050781 7.300781 -6.773438 7.53125 -6.421875 C 7.757812 -6.066406 7.875 -5.65625 7.875 -5.1875 Z M 5.1875 -6.4375 L 2.734375 -6.4375 L 2.734375 -3.9375 L 5.328125 -3.9375 C 5.578125 -3.9375 5.800781 -3.992188 6 -4.109375 C 6.207031 -4.222656 6.367188 -4.378906 6.484375 -4.578125 C 6.597656 -4.773438 6.65625 -4.984375 6.65625 -5.203125 C 6.65625 -5.441406 6.585938 -5.65625 6.453125 -5.84375 C 6.316406 -6.03125 6.132812 -6.175781 5.90625 -6.28125 C 5.6875 -6.382812 5.445312 -6.4375 5.1875 -6.4375 Z M 5.1875 -6.4375 "/></g></g></g><g fill="#ffffff" fill-opacity="1"><g transform="translate(233.240707, 235.976133)"><g><path d="M 7.390625 0 L 6.578125 -1.8125 L 2.703125 -1.8125 L 1.890625 0 L 0.6875 0 L 4.03125 -7.5625 L 5.3125 -7.5625 L 8.640625 0 Z M 4.046875 -4.875 L 3.203125 -2.9375 L 6.078125 -2.9375 L 5.203125 -4.921875 C 5.003906 -5.367188 4.8125 -5.84375 4.625 -6.34375 C 4.53125 -6.082031 4.4375 -5.828125 4.34375 -5.578125 C 4.25 -5.335938 4.148438 -5.101562 4.046875 -4.875 Z M 4.046875 -4.875 "/></g></g></g><g fill="#ffffff" fill-opacity="1"><g transform="translate(251.20865, 235.976133)"><g><path d="M 5.390625 -7.5625 C 5.816406 -7.5625 6.207031 -7.457031 6.5625 -7.25 C 6.925781 -7.039062 7.210938 -6.757812 7.421875 -6.40625 C 7.628906 -6.0625 7.734375 -5.671875 7.734375 -5.234375 C 7.734375 -4.785156 7.625 -4.378906 7.40625 -4.015625 C 7.1875 -3.660156 6.882812 -3.375 6.5 -3.15625 C 6.125 -2.9375 5.710938 -2.828125 5.265625 -2.828125 L 2.734375 -2.828125 L 2.734375 0 L 1.5625 0 L 1.5625 -7.5625 Z M 5.203125 -3.953125 C 5.441406 -3.953125 5.660156 -4.007812 5.859375 -4.125 C 6.066406 -4.25 6.226562 -4.40625 6.34375 -4.59375 C 6.457031 -4.789062 6.515625 -5.003906 6.515625 -5.234375 C 6.515625 -5.460938 6.457031 -5.664062 6.34375 -5.84375 C 6.226562 -6.019531 6.066406 -6.160156 5.859375 -6.265625 C 5.660156 -6.378906 5.441406 -6.4375 5.203125 -6.4375 L 2.734375 -6.4375 L 2.734375 -3.953125 Z M 5.203125 -3.953125 "/></g></g></g><g fill="#ffffff" fill-opacity="1"><g transform="translate(268.626145, 235.976133)"><g><path d="M 8.40625 -7.5625 L 5.15625 -3.09375 L 5.15625 0 L 4 0 L 4 -3.0625 L 0.53125 -7.5625 L 2.046875 -7.5625 L 4.59375 -4.140625 L 7 -7.5625 Z M 8.40625 -7.5625 "/></g></g></g></svg>